<svg xmlns="http://www.w3.org/2000/svg" width="424.863" height="38.689" viewBox="0 0 424.863 38.689"><path d="M121.745 10.174c-1.464-1.57-2.928-3.133-4.39-4.686a100.785 100.785 0 00-.043 4.305l.018 1.1c.005.383.013.77.024 1.164.01.394.023.76.034 1.098.01.338.022.633.034.887.01.254.02.426.033.516a5.25 5.25 0 00-1.217 0c.023-.113.05-.322.077-.625.028-.305.053-.668.075-1.09.023-.422.05-.88.076-1.377a81.824 81.824 0 00.108-2.937c.013-.474.02-.896.02-1.267 0-1.082-.003-2.01-.01-2.787a39.666 39.666 0 00-.042-1.74h.27c.688.744 1.422 1.54 2.205 2.39a767.755 767.755 0 004.525 4.865c.69.737 1.297 1.366 1.814 1.884V9.577c0-1.182-.008-2.332-.024-3.453a76.918 76.918 0 00-.11-3.166c.225.057.416.084.574.084.135 0 .315-.027.54-.084-.022.248-.048.62-.075 1.115-.028.494-.056 1.023-.083 1.586-.03.563-.055 1.114-.076 1.653-.022.54-.033.975-.033 1.3V9.63c0 .383.003.783.01 1.2.004.415.01.835.016 1.257.005.422.01.816.017 1.182.006.367.01.684.01.955v.557h-.238a166.146 166.146 0 00-4.137-4.606zm7.81-5.031c-.028-.717-.06-1.445-.094-2.188.147.02.288.043.423.06a3.238 3.238 0 00.81 0c.136-.018.276-.04.423-.06-.034.74-.065 1.47-.094 2.187a55.847 55.847 0 00-.042 2.186v2.903c0 .744.015 1.477.043 2.195.028.72.06 1.43.094 2.13a9.39 9.39 0 00-.828-.036 9.39 9.39 0 00-.83.035c.035-.7.066-1.408.095-2.13.027-.718.04-1.45.04-2.194V7.33c0-.744-.012-1.472-.04-2.187zm4.779-.027c-.03-.72-.06-1.44-.094-2.16.507.02 1.01.043 1.512.06a44.513 44.513 0 003.014-.001c.496-.016.997-.037 1.504-.06a2.555 2.555 0 000 1.015c-.36-.023-.69-.045-.988-.068-.3-.02-.613-.045-.945-.066a32.1 32.1 0 00-2.508-.086c-.012.36-.025.705-.043 1.03a21.74 21.74 0 00-.024 1.114c0 .44.003.867.008 1.283.006.418.01.732.01.947a44.31 44.31 0 002.414-.06c.325-.017.628-.034.903-.052.275-.016.537-.035.785-.06a2.616 2.616 0 000 1.03c-.293-.033-.633-.06-1.02-.084a30.27 30.27 0 00-1.167-.04l-1.098-.02a47.378 47.378 0 00-.818-.007c0 .1-.004.212-.01.33-.005.118-.008.267-.008.446v1.671c0 .643.003 1.172.008 1.588.006.418.015.732.026.945h1.182a33.874 33.874 0 002.424-.09c.365-.03.684-.07.953-.127a1.195 1.195 0 00-.043.262 5.07 5.07 0 00-.008.262c0 .18.018.326.05.44a33.33 33.33 0 00-1.51-.036h-3.065c-.508 0-1.02.013-1.538.036.033-.72.064-1.44.094-2.154a57.9 57.9 0 00.04-2.186V7.31a60.79 60.79 0 00-.042-2.194zm8.528.027c-.028-.717-.06-1.445-.094-2.188.428.02.854.043 1.275.06.422.017.848.024 1.275.024.427 0 .853-.015 1.275-.042.422-.03.846-.043 1.274-.043.99 0 1.838.13 2.542.39.702.257 1.278.626 1.73 1.104.45.478.778 1.063.987 1.755.207.693.313 1.473.313 2.34 0 1.125-.195 2.074-.584 2.846-.387.772-.883 1.394-1.485 1.866a5.57 5.57 0 01-1.992 1.006 8.043 8.043 0 01-2.085.295c-.384 0-.76-.006-1.132-.018a34.99 34.99 0 00-1.13-.02h-1.13c-.373 0-.75.013-1.134.036.034-.7.065-1.408.094-2.13.027-.718.042-1.45.042-2.194V7.328c.002-.742-.013-1.47-.04-2.185zm1.528 8.67c.236.057.557.1.962.127.406.03.822.043 1.25.043a8.06 8.06 0 001.857-.22 4.03 4.03 0 001.663-.827c.488-.406.89-.96 1.198-1.664.31-.703.465-1.613.465-2.727 0-.98-.12-1.785-.362-2.416-.242-.63-.574-1.128-.996-1.495a3.55 3.55 0 00-1.51-.76 8.236 8.236 0 00-1.927-.21 20.534 20.534 0 00-2.6.17 47.33 47.33 0 00-.077 1.694c-.017.59-.025 1.19-.025 1.798v2.904c0 1.218.035 2.41.102 3.58zm11.694-8.697c-.027-.72-.06-1.44-.093-2.16.508.02 1.012.043 1.512.06a44.68 44.68 0 001.512.024 43.8 43.8 0 001.503-.025c.495-.016.997-.037 1.503-.06a2.664 2.664 0 000 1.015c-.36-.023-.69-.045-.987-.068-.298-.02-.614-.045-.946-.066a32.09 32.09 0 00-2.508-.086c-.01.36-.025.705-.042 1.03a21.74 21.74 0 00-.024 1.114c0 .44.002.867.008 1.283.007.418.01.732.01.947a44.193 44.193 0 002.415-.06 55.7 55.7 0 00.902-.052c.275-.016.538-.035.785-.06a2.736 2.736 0 000 1.03 19.52 19.52 0 00-1.02-.084 30.22 30.22 0 00-1.166-.04l-1.097-.02a47.657 47.657 0 00-.82-.007c0 .1-.003.212-.01.33-.005.118-.007.267-.007.446v1.671c0 .643.002 1.172.008 1.588.007.418.015.732.026.945h1.182a33.308 33.308 0 002.424-.09c.365-.03.684-.07.954-.127a1.197 1.197 0 00-.042.262c-.006.096-.01.182-.01.262 0 .18.018.326.052.44a33.365 33.365 0 00-1.512-.036h-3.064c-.507 0-1.02.013-1.537.036.034-.72.065-1.44.093-2.154.028-.715.042-1.443.042-2.186V7.31a58.552 58.552 0 00-.044-2.194zm8.528.027a271.42 271.42 0 00-.093-2.188c.326.02.646.043.962.06.315.017.636.024.962.024.327 0 .648-.015.963-.042.315-.03.637-.043.963-.043.473 0 .923.045 1.352.135.428.09.8.24 1.123.447.32.21.574.482.76.818.186.338.277.76.277 1.268 0 .54-.12 1.004-.362 1.393-.24.39-.538.71-.886.963-.35.253-.725.45-1.123.59-.4.142-.763.233-1.09.278.136.17.32.406.558.71.236.304.502.64.795 1.005.292.365.596.748.912 1.148.314.4.618.784.91 1.15.293.364.57.698.828 1.003.26.305.467.535.625.693a3.742 3.742 0 00-.506-.035h-.998c-.168 0-.332.013-.49.036-.167-.236-.424-.592-.768-1.064a68.07 68.07 0 00-1.14-1.52 90.983 90.983 0 00-1.274-1.613c-.433-.536-.83-.99-1.19-1.36h-.642v1.232c0 .744.014 1.477.042 2.195.028.72.06 1.43.093 2.13a9.39 9.39 0 00-.828-.036c-.292 0-.568.013-.827.036.034-.7.065-1.408.093-2.13.03-.718.043-1.45.043-2.194V7.328a53.9 53.9 0 00-.044-2.185zm1.942 3.217c.187.01.392.016.616.016.35 0 .712-.04 1.09-.117.377-.08.723-.218 1.038-.415.315-.197.577-.46.785-.793.208-.334.313-.752.313-1.26 0-.438-.08-.8-.245-1.088a1.94 1.94 0 00-.632-.684 2.43 2.43 0 00-.844-.348 4.566 4.566 0 00-.896-.092c-.394 0-.72.008-.98.025-.26.016-.478.035-.657.06l-.067 1.84a50.52 50.52 0 00-.033 1.823v.963c.156.035.33.058.514.07zm8.494 4.617c.15.21.338.398.558.566a2.836 2.836 0 001.747.574 2.51 2.51 0 001.005-.193 2.3 2.3 0 00.76-.525c.21-.22.37-.48.48-.776a2.7 2.7 0 00.17-.955c0-.52-.133-.93-.396-1.233a3.288 3.288 0 00-.988-.76 11.09 11.09 0 00-1.275-.557 6.51 6.51 0 01-1.275-.635 3.333 3.333 0 01-.987-.97c-.266-.396-.397-.923-.397-1.587 0-.475.086-.904.254-1.293.17-.39.414-.723.735-1.004.32-.28.705-.5 1.156-.66.45-.155.956-.235 1.52-.235.54 0 1.007.066 1.4.195.395.13.76.328 1.098.6-.1.19-.186.395-.252.607a8.2 8.2 0 00-.203.81h-.204a4.676 4.676 0 00-.228-.515 1.965 1.965 0 00-.39-.514 2.168 2.168 0 00-.582-.398 1.9 1.9 0 00-.81-.16c-.315 0-.605.05-.87.152a2.03 2.03 0 00-.692.432 1.91 1.91 0 00-.456.666c-.107.26-.16.54-.16.844 0 .53.132.947.396 1.25a3.4 3.4 0 00.988.77c.394.207.818.395 1.274.557.456.163.88.364 1.274.6.395.237.724.54.988.913.265.37.397.867.397 1.486a3.91 3.91 0 01-.278 1.468c-.187.46-.457.863-.81 1.207-.356.344-.79.607-1.302.795-.513.184-1.096.277-1.748.277-.698 0-1.264-.094-1.697-.277a4.658 4.658 0 01-1.09-.635 3.94 3.94 0 00.212-.7c.04-.208.076-.476.11-.802h.2c.093.2.215.407.366.614zm13.654-8.121c.314.758.635 1.527.963 2.305a393.057 393.057 0 001.9 4.45c.286.66.546 1.247.776 1.767.23.518.42.91.566 1.182a3.103 3.103 0 00-.447-.036h-.896c-.14 0-.29.012-.447.035-.078-.26-.186-.573-.32-.94-.136-.366-.285-.75-.447-1.147l-.498-1.217c-.17-.41-.328-.8-.473-1.174-.362-.01-.728-.018-1.1-.025-.372-.004-.743-.008-1.114-.008-.35 0-.692.003-1.03.007l-1.03.025c-.36.88-.687 1.715-.98 2.508-.29.795-.512 1.45-.658 1.97a5.215 5.215 0 00-.623-.036c-.227 0-.434.012-.625.035.91-1.972 1.8-3.93 2.668-5.878.866-1.947 1.738-3.93 2.617-5.945h.32c.267.652.56 1.357.877 2.12zM185.29.252a.83.83 0 01.607-.252c.237 0 .44.084.61.252a.84.84 0 01.252.61.83.83 0 01-.254.606.83.83 0 01-.61.254.824.824 0 01-.606-.254.83.83 0 01-.253-.607c0-.235.085-.438.253-.608zm.134 9.053c.293 0 .598.006.912.016.316.013.62.02.912.02.314 0 .63-.003.945-.01.316-.005.63-.015.946-.024l-1.875-4.29-1.84 4.29zm3.193-9.053a.832.832 0 01.608-.252c.236 0 .44.084.607.252.168.17.253.373.253.61a.83.83 0 01-.253.606.823.823 0 01-.607.254.826.826 0 01-.608-.254.826.826 0 01-.253-.607c0-.235.084-.438.253-.608zm14.565 13.908c-.22.106-.484.202-.794.288-.31.084-.656.16-1.04.227a6.833 6.833 0 01-1.197.102c-.89 0-1.71-.127-2.465-.38a5.204 5.204 0 01-1.95-1.157 5.413 5.413 0 01-1.283-1.898c-.31-.75-.465-1.602-.465-2.56 0-.956.154-1.81.465-2.558a5.33 5.33 0 011.3-1.9 5.613 5.613 0 012-1.182c.778-.27 1.634-.406 2.567-.406.743 0 1.42.076 2.034.23a9.632 9.632 0 011.63.548 2.25 2.25 0 00-.22.643c-.057.27-.102.496-.135.674l-.103.036a3.826 3.826 0 00-.473-.457 5.158 5.158 0 00-.71-.49 4.497 4.497 0 00-.91-.397 3.735 3.735 0 00-1.116-.16c-.664 0-1.28.107-1.85.322a3.932 3.932 0 00-1.484.986c-.423.446-.752 1.01-.988 1.69-.236.68-.355 1.488-.355 2.424 0 .934.12 1.742.356 2.422.236.682.565 1.246.988 1.69.422.444.916.774 1.485.987.567.213 1.184.32 1.848.32.406 0 .78-.05 1.123-.152a5.837 5.837 0 001.723-.817c.23-.164.425-.307.582-.43l.068.066-.152.995c-.098.09-.26.188-.478.296zm11.5-9.017c-.03-.717-.06-1.445-.094-2.188.146.02.287.043.422.06a3.241 3.241 0 00.809-.002c.136-.016.276-.037.423-.06-.035.743-.066 1.472-.094 2.19a57.85 57.85 0 00-.044 2.185v2.903c0 .744.016 1.477.043 2.195.026.72.058 1.43.093 2.13a9.383 9.383 0 00-.827-.036c-.293 0-.57.012-.828.035.034-.7.064-1.408.094-2.13.027-.718.042-1.45.042-2.194v-1.52c-.608-.01-1.196-.02-1.765-.025a200.595 200.595 0 00-3.53 0c-.57.006-1.158.016-1.767.025v1.52c0 .744.015 1.477.043 2.195.027.72.06 1.43.093 2.13a9.35 9.35 0 00-.828-.036 9.39 9.39 0 00-.828.035c.033-.7.064-1.408.094-2.13.027-.718.04-1.45.04-2.194V7.33c0-.743-.013-1.472-.04-2.187-.03-.717-.06-1.445-.094-2.188.146.02.287.043.422.06a3.21 3.21 0 00.81 0c.136-.018.276-.04.423-.06-.035.74-.066 1.47-.094 2.187a55.823 55.823 0 00-.043 2.186v.59c.608.013 1.197.022 1.766.034a83.654 83.654 0 003.53 0c.568-.012 1.155-.02 1.764-.033v-.59c0-.744-.015-1.472-.042-2.187zm4.811 7.834c.152.21.338.398.56.566a2.836 2.836 0 001.747.574 2.51 2.51 0 001.005-.193 2.243 2.243 0 001.24-1.301c.113-.3.17-.617.17-.955 0-.52-.133-.93-.396-1.233a3.288 3.288 0 00-.99-.76c-.393-.203-.817-.39-1.274-.557-.455-.17-.88-.38-1.275-.635a3.325 3.325 0 01-.987-.97c-.263-.396-.396-.923-.396-1.587 0-.475.084-.904.254-1.293a2.8 2.8 0 01.735-1.004c.32-.28.707-.5 1.156-.66a4.663 4.663 0 011.52-.235c.542 0 1.01.066 1.403.195.394.13.76.328 1.098.6a3.8 3.8 0 00-.253.607 8.56 8.56 0 00-.2.81h-.204a4.514 4.514 0 00-.23-.515 1.944 1.944 0 00-.388-.514 2.147 2.147 0 00-.582-.398 1.913 1.913 0 00-.81-.16c-.316 0-.606.05-.87.152a2.05 2.05 0 00-.693.432c-.197.186-.35.408-.455.666-.107.26-.16.54-.16.844 0 .53.13.947.396 1.25.265.305.595.56.99.77.392.207.817.395 1.272.557.457.163.88.364 1.275.6.394.238.723.54.988.913.264.37.396.867.396 1.486a3.87 3.87 0 01-.278 1.468c-.186.46-.455.863-.81 1.207a3.63 3.63 0 01-1.3.795c-.514.184-1.096.277-1.748.277-.7 0-1.264-.094-1.697-.277a4.687 4.687 0 01-1.09-.635c.102-.258.172-.492.21-.7.04-.208.077-.476.11-.802h.203c.09.2.21.407.363.614zm8.494-7.834c-.027-.717-.06-1.445-.092-2.188.146.02.287.043.422.06a3.241 3.241 0 00.81-.002c.135-.016.275-.037.422-.06-.034.743-.065 1.472-.093 2.19-.03.714-.043 1.442-.043 2.185v2.903c0 .744.014 1.477.043 2.195.027.72.06 1.43.092 2.13a9.377 9.377 0 00-.827-.036c-.293 0-.57.012-.828.035.033-.7.064-1.408.092-2.13.03-.718.043-1.45.043-2.194V7.33c0-.744-.013-1.472-.043-2.187zm4.815 7.834c.15.21.338.398.557.566.218.168.474.307.767.414.293.107.62.16.98.16.37 0 .705-.064 1.004-.193a2.254 2.254 0 001.243-1.301c.11-.3.168-.617.168-.955 0-.52-.13-.93-.395-1.233a3.263 3.263 0 00-.988-.76 11.09 11.09 0 00-1.275-.557 6.55 6.55 0 01-1.273-.635 3.325 3.325 0 01-.99-.97c-.265-.396-.395-.923-.395-1.587 0-.475.084-.904.252-1.293.17-.39.414-.723.736-1.004.32-.28.705-.5 1.156-.66a4.62 4.62 0 011.52-.235c.54 0 1.007.066 1.4.195.394.13.76.328 1.1.6a3.5 3.5 0 00-.255.607 8.49 8.49 0 00-.203.81h-.203a4.85 4.85 0 00-.228-.515 1.987 1.987 0 00-.39-.514 2.178 2.178 0 00-.58-.398 1.916 1.916 0 00-.814-.16c-.314 0-.604.05-.87.152a2.042 2.042 0 00-.69.432c-.197.186-.35.408-.457.666-.106.26-.16.54-.16.844 0 .53.134.947.397 1.25.266.305.594.56.988.77.395.207.82.395 1.275.557.455.163.88.364 1.275.6.393.237.723.54.986.913.267.37.4.867.4 1.486a3.91 3.91 0 01-.28 1.468c-.185.46-.457.863-.81 1.207-.356.344-.79.607-1.302.795-.512.184-1.094.277-1.748.277-.697 0-1.264-.094-1.697-.277a4.63 4.63 0 01-1.088-.635c.102-.258.172-.492.21-.7.04-.208.077-.476.11-.802h.203c.09.2.21.407.364.614zm16.785 1.183c-.22.106-.484.202-.793.288-.31.084-.656.16-1.04.227a6.833 6.833 0 01-1.198.102 7.74 7.74 0 01-2.467-.38 5.208 5.208 0 01-1.95-1.157 5.413 5.413 0 01-1.283-1.898c-.31-.75-.465-1.602-.465-2.56 0-.956.154-1.81.465-2.558a5.33 5.33 0 011.3-1.9 5.613 5.613 0 012-1.182c.778-.27 1.634-.406 2.567-.406.744 0 1.422.076 2.035.23a9.693 9.693 0 011.628.548 2.25 2.25 0 00-.22.643c-.056.27-.1.496-.134.674l-.102.036a3.826 3.826 0 00-.473-.457 5.158 5.158 0 00-.71-.49 4.497 4.497 0 00-.912-.397 3.74 3.74 0 00-1.115-.16 5.2 5.2 0 00-1.85.322 3.928 3.928 0 00-1.484.986c-.425.446-.753 1.01-.99 1.69-.235.68-.354 1.488-.354 2.424 0 .934.12 1.742.355 2.422.237.682.565 1.246.99 1.69.42.444.915.774 1.483.987a5.24 5.24 0 001.85.32c.406 0 .78-.05 1.123-.152a5.85 5.85 0 001.722-.817c.23-.164.426-.307.582-.43l.068.066-.152.995c-.1.09-.26.188-.48.296zm11.5-9.017c-.03-.717-.06-1.445-.094-2.188.146.02.287.043.422.06s.27.024.406.024.27-.01.405-.026c.137-.016.277-.037.424-.06-.036.743-.067 1.472-.095 2.19-.03.714-.043 1.442-.043 2.185v2.903c0 .744.014 1.477.043 2.195.027.72.06 1.43.094 2.13a9.39 9.39 0 00-.83-.036 9.39 9.39 0 00-.827.035c.035-.7.064-1.408.094-2.13.027-.718.04-1.45.04-2.194v-1.52c-.606-.01-1.194-.02-1.763-.025a200.417 200.417 0 00-3.53 0c-.57.006-1.158.016-1.766.025v1.52c0 .744.014 1.477.043 2.195.028.72.06 1.43.095 2.13a9.39 9.39 0 00-.828-.036 9.39 9.39 0 00-.828.035c.032-.7.063-1.408.093-2.13.027-.718.04-1.45.04-2.194V7.33c0-.743-.013-1.472-.04-2.187-.03-.717-.06-1.445-.094-2.188.145.02.286.043.42.06a3.21 3.21 0 00.81 0c.138-.018.278-.04.425-.06-.035.74-.066 1.47-.094 2.187a55.847 55.847 0 00-.042 2.186v.59c.607.013 1.197.022 1.766.034a83.654 83.654 0 003.53 0c.57-.012 1.156-.02 1.764-.033v-.59a57.9 57.9 0 00-.04-2.187zm4.779-.027c-.03-.72-.06-1.44-.094-2.16.506.02 1.01.043 1.512.06a44.513 44.513 0 003.014-.001c.496-.016.996-.037 1.504-.06-.035.17-.05.34-.05.507 0 .17.015.338.05.508a74.22 74.22 0 01-.988-.068c-.3-.02-.613-.045-.945-.066a32.1 32.1 0 00-2.508-.086c-.013.36-.026.705-.044 1.03-.018.327-.025.698-.025 1.114 0 .44.002.867.008 1.283.007.418.01.732.01.947a44.358 44.358 0 002.415-.06c.326-.017.63-.034.904-.052.274-.016.536-.035.784-.06a2.616 2.616 0 000 1.03c-.293-.033-.633-.06-1.02-.084a30.27 30.27 0 00-1.167-.04l-1.098-.02a47.467 47.467 0 00-.82-.007c0 .1-.003.212-.01.33-.005.118-.007.267-.007.446v1.671c0 .643.002 1.172.008 1.588.007.418.017.732.028.945h1.182a33.463 33.463 0 002.422-.09c.367-.03.686-.07.955-.127a1.195 1.195 0 00-.043.262 4.15 4.15 0 00-.008.262c0 .18.018.326.05.44a33.365 33.365 0 00-1.51-.036h-3.065c-.507 0-1.02.013-1.536.036.033-.72.064-1.44.094-2.154a57.9 57.9 0 00.04-2.186V7.31a60.79 60.79 0 00-.042-2.194zm13.34 7.861c.152.21.338.398.557.566a2.82 2.82 0 001.75.574 2.5 2.5 0 001.003-.193c.3-.13.553-.305.762-.525.207-.22.367-.48.48-.776.113-.3.168-.617.168-.955 0-.52-.13-.93-.396-1.233a3.28 3.28 0 00-.986-.76 11.51 11.51 0 00-1.275-.557 6.492 6.492 0 01-1.276-.635 3.325 3.325 0 01-.988-.97c-.263-.396-.396-.923-.396-1.587 0-.475.084-.904.254-1.293a2.8 2.8 0 01.734-1.004c.32-.28.707-.5 1.156-.66a4.62 4.62 0 011.52-.235c.54 0 1.008.066 1.402.195.393.13.76.328 1.098.6-.102.19-.186.395-.254.607a9.14 9.14 0 00-.203.81h-.2a4.514 4.514 0 00-.23-.515 1.944 1.944 0 00-.39-.514 2.178 2.178 0 00-.58-.398 1.913 1.913 0 00-.812-.16c-.316 0-.605.05-.87.152a2.062 2.062 0 00-.692.432c-.197.186-.35.408-.457.666-.105.26-.16.54-.16.844 0 .53.133.947.396 1.25.266.305.594.56.988.77.395.207.82.395 1.275.557.457.163.88.364 1.275.6.394.238.723.54.988.913.264.37.396.867.396 1.486a3.91 3.91 0 01-.28 1.468 3.44 3.44 0 01-.81 1.207 3.616 3.616 0 01-1.3.795c-.513.184-1.095.277-1.75.277-.696 0-1.263-.094-1.694-.277a4.687 4.687 0 01-1.09-.635c.102-.258.172-.492.21-.7.04-.208.077-.476.11-.802h.203c.09.2.21.407.363.614zm10.832-9.143c-.293 0-.6.002-.92.008-.32.006-.643.016-.963.033-.32.017-.63.037-.928.06-.3.022-.566.05-.803.085a2.02 2.02 0 00.084-.54c0-.126-.027-.3-.084-.524.744.02 1.47.043 2.178.06.71.017 1.436.024 2.18.024.742 0 1.47-.008 2.178-.025a258.7 258.7 0 002.178-.06 2.412 2.412 0 00-.084.542c0 .145.03.32.084.523a11.697 11.697 0 00-.8-.086l-.93-.06a28.21 28.21 0 00-.964-.032 48.92 48.92 0 00-.92-.008c-.033 1.158-.05 2.324-.05 3.494v2.904c0 .744.013 1.477.042 2.195.027.72.06 1.43.094 2.13a9.39 9.39 0 00-.828-.036 9.39 9.39 0 00-.828.036c.033-.7.064-1.408.094-2.13.027-.718.04-1.45.04-2.194V7.328c0-1.17-.015-2.335-.05-3.494zm15.25 10.723a3.114 3.114 0 00-.447-.035h-.896a3.1 3.1 0 00-.446.035c-.078-.26-.186-.572-.32-.938-.135-.368-.285-.75-.447-1.15-.163-.4-.33-.804-.497-1.216-.168-.41-.326-.8-.473-1.174-.36-.01-.727-.018-1.098-.025-.37-.004-.742-.008-1.115-.008-.348 0-.69.004-1.03.008l-1.028.025a73.25 73.25 0 00-.98 2.508 27.16 27.16 0 00-.66 1.97 5.25 5.25 0 00-.624-.036c-.227 0-.434.012-.625.035.913-1.97 1.802-3.93 2.67-5.877.866-1.947 1.74-3.93 2.616-5.945h.32c.27.654.564 1.36.88 2.12a474.784 474.784 0 002.862 6.755c.286.66.546 1.248.776 1.768.228.516.418.91.564 1.18zm-7.48-5.252a29 29 0 01.912.016c.314.013.62.02.912.02.314 0 .63-.003.945-.01.314-.005.63-.015.945-.024l-1.875-4.29-1.84 4.29zm18.828 5.252a3.114 3.114 0 00-.447-.035h-.895c-.14 0-.29.012-.447.035-.08-.26-.188-.572-.322-.938-.135-.368-.283-.75-.447-1.15-.163-.4-.33-.804-.5-1.216-.167-.41-.325-.8-.472-1.174-.36-.01-.727-.018-1.098-.025-.37-.004-.742-.008-1.113-.008-.35 0-.693.004-1.03.008l-1.03.025a73.25 73.25 0 00-.98 2.508 27.16 27.16 0 00-.658 1.97 5.25 5.25 0 00-.626-.036 5.25 5.25 0 00-.625.035c.91-1.97 1.8-3.93 2.667-5.877.867-1.947 1.74-3.93 2.617-5.945h.32c.27.654.564 1.36.88 2.12a474.784 474.784 0 001.942 4.618 350.917 350.917 0 001.696 3.905c.23.516.417.91.564 1.18zm-7.48-5.252c.292 0 .595.006.91.016.315.013.62.02.913.02.313 0 .628-.003.944-.01.314-.005.63-.015.945-.024l-1.876-4.29-1.84 4.29zm10.552-5.471c-.29 0-.598.002-.92.008-.32.006-.64.016-.96.033-.323.018-.632.037-.93.06-.3.022-.567.05-.804.085a2.03 2.03 0 00.086-.54c0-.126-.03-.3-.086-.524.744.02 1.47.043 2.18.06.71.017 1.434.024 2.178.024.742 0 1.47-.008 2.178-.025.71-.016 1.436-.037 2.18-.06a2.322 2.322 0 00-.086.542c0 .145.03.32.086.523a11.765 11.765 0 00-.803-.086l-.93-.06a25.7 25.7 0 00-.96-.032 49.45 49.45 0 00-.923-.008 122.73 122.73 0 00-.05 3.494v2.904c0 .744.015 1.477.042 2.195.027.72.06 1.43.094 2.13a9.39 9.39 0 00-.828-.036 9.39 9.39 0 00-.828.036c.033-.7.064-1.408.094-2.13.027-.718.04-1.45.04-2.194V7.328c0-1.17-.015-2.335-.05-3.494zm7.17 9.143c.152.21.338.398.557.566a2.82 2.82 0 001.75.574 2.5 2.5 0 001.003-.193c.3-.13.553-.305.762-.525.207-.22.367-.48.48-.776.113-.3.168-.617.168-.955 0-.52-.13-.93-.396-1.233a3.263 3.263 0 00-.988-.76c-.393-.203-.818-.39-1.273-.557a6.53 6.53 0 01-1.274-.635 3.325 3.325 0 01-.988-.97c-.263-.396-.396-.923-.396-1.587 0-.475.084-.904.252-1.293.17-.39.414-.723.736-1.004.32-.28.705-.5 1.156-.66a4.62 4.62 0 011.52-.235c.54 0 1.008.066 1.402.195.393.13.76.328 1.098.6-.102.19-.186.395-.254.607a8.49 8.49 0 00-.203.81h-.204a4.153 4.153 0 00-.227-.515 1.944 1.944 0 00-.39-.514 2.178 2.178 0 00-.582-.398 1.913 1.913 0 00-.81-.16c-.317 0-.606.05-.872.152a2.062 2.062 0 00-.69.432c-.198.186-.35.408-.458.666-.105.26-.16.54-.16.844 0 .53.133.947.396 1.25.266.305.594.56.988.77.395.207.82.395 1.275.557.455.163.88.364 1.275.6.394.238.723.54.988.913.264.37.396.867.396 1.486a3.91 3.91 0 01-.28 1.468 3.44 3.44 0 01-.81 1.207 3.616 3.616 0 01-1.3.795c-.513.184-1.095.277-1.75.277-.696 0-1.263-.094-1.694-.277a4.687 4.687 0 01-1.09-.635c.102-.258.172-.492.21-.7.04-.208.077-.476.11-.802h.203c.09.2.21.407.363.614zm11.795-2.879v1.047h-4.203v-1.047h4.203zm16.01-5.353c-.012-.865-.04-1.463-.084-1.79.122.022.24.044.353.06a1.81 1.81 0 00.846-.06 64.733 64.733 0 00-.188 3.166c-.02.626-.044 1.27-.065 1.927-.023.658-.04 1.297-.05 1.916-.013.754-.128 1.43-.347 2.025a4.262 4.262 0 01-.938 1.52 3.912 3.912 0 01-1.494.946c-.592.213-1.27.32-2.035.32-1.688 0-2.915-.383-3.68-1.148-.767-.765-1.15-1.977-1.15-3.63 0-.53.015-1 .044-1.41.027-.41.04-.83.04-1.26a88.405 88.405 0 00-.1-4.372c.135.02.28.043.44.06.157.017.304.024.438.024.123 0 .244-.008.363-.025.117-.016.238-.037.363-.06a24.84 24.84 0 00-.068.972 86.734 86.734 0 00-.117 2.998 88.96 88.96 0 00-.018 1.824c0 .38.006.778.018 1.188.01.412.05.81.117 1.2.068.388.178.76.33 1.112.152.355.367.666.65.93.28.266.635.473 1.063.625.428.152.957.23 1.588.23.62 0 1.142-.093 1.564-.272.422-.18.768-.416 1.04-.71.27-.292.48-.63.632-1.013.152-.38.262-.78.33-1.197.066-.418.105-.834.117-1.25.012-.416.016-.8.016-1.148-.002-1.6-.006-2.833-.017-3.7zm9.81 5.429c-1.463-1.57-2.928-3.133-4.39-4.686a100.85 100.85 0 00-.05 3.428c-.003.236 0 .53.005.877.005.35.01.717.017 1.1.006.383.016.77.025 1.164.012.395.023.76.035 1.098.01.338.02.633.033.887.012.254.02.426.033.516a5.25 5.25 0 00-1.217 0c.024-.113.05-.322.08-.625.026-.305.052-.668.073-1.09.023-.422.05-.88.076-1.377.027-.494.05-.99.068-1.484a95.835 95.835 0 00.06-2.72c0-1.08-.003-2.01-.01-2.786a36.7 36.7 0 00-.042-1.74h.27l2.204 2.39c.78.85 1.56 1.69 2.33 2.517.77.828 1.504 1.61 2.195 2.348.69.737 1.296 1.366 1.813 1.884V9.577c0-1.182-.008-2.332-.023-3.453a78.655 78.655 0 00-.11-3.166c.224.057.417.084.573.084.135 0 .316-.027.54-.084-.022.248-.048.62-.075 1.115-.03.494-.057 1.023-.084 1.586-.03.563-.055 1.114-.076 1.653-.023.54-.033.975-.033 1.3V9.63c0 .383.002.783.008 1.2a6146.455 6146.455 0 01.034 2.44c.006.366.01.683.01.954v.557h-.238a161.38 161.38 0 00-4.137-4.606zm7.811-5.031c-.027-.717-.06-1.445-.094-2.188.428.02.854.043 1.275.06.422.017.848.024 1.275.024.427 0 .854-.015 1.275-.042.422-.03.846-.043 1.275-.043.99 0 1.838.13 2.54.39.704.257 1.28.626 1.73 1.104.452.477.78 1.063.99 1.755.206.693.312 1.473.312 2.34 0 1.125-.195 2.074-.584 2.846-.387.772-.883 1.394-1.484 1.866a5.573 5.573 0 01-1.994 1.006 8.032 8.032 0 01-2.086.295c-.383 0-.758-.006-1.13-.018a34.99 34.99 0 00-1.132-.02h-1.13c-.374 0-.75.013-1.134.036.035-.7.066-1.408.094-2.13.027-.718.043-1.45.043-2.194V7.328c.002-.742-.014-1.47-.04-2.185zm1.53 8.67c.235.057.556.1.96.127.406.03.822.043 1.25.043a8.06 8.06 0 001.857-.22 4.03 4.03 0 001.665-.827c.488-.406.89-.96 1.2-1.664.308-.703.462-1.613.462-2.727 0-.98-.12-1.785-.36-2.416-.243-.63-.577-1.128-.997-1.495a3.56 3.56 0 00-1.512-.76 8.236 8.236 0 00-1.926-.21 20.353 20.353 0 00-2.6.17c-.035.538-.06 1.104-.078 1.694a66.59 66.59 0 00-.023 1.798v2.904c0 1.218.035 2.41.103 3.58zM125.156 25.438c-.01-.867-.04-1.465-.085-1.79.125.022.243.042.356.06a1.8 1.8 0 00.844-.06 69.94 69.94 0 00-.186 3.166l-.067 1.926c-.022.657-.04 1.298-.05 1.915-.012.756-.127 1.432-.347 2.027a4.26 4.26 0 01-.938 1.52 3.897 3.897 0 01-1.495.945c-.59.215-1.27.322-2.035.322-1.688 0-2.915-.386-3.68-1.15-.767-.765-1.15-1.976-1.15-3.63 0-.53.016-1 .043-1.41.028-.412.043-.83.043-1.258 0-.945-.012-1.785-.034-2.518-.022-.73-.045-1.35-.067-1.857.135.023.28.043.44.06.156.017.303.024.437.024.124 0 .245-.007.363-.022.118-.018.24-.037.363-.06-.022.247-.046.57-.067.97-.023.4-.045.854-.068 1.36-.022.507-.04 1.052-.05 1.638a89.279 89.279 0 00-.017 1.824c0 .383.005.78.016 1.19.012.41.05.81.12 1.198.066.39.176.76.328 1.115.15.354.368.664.65.928.28.267.636.476 1.063.626.428.152.957.23 1.588.23.62 0 1.14-.09 1.562-.27.423-.18.77-.417 1.038-.71.27-.293.48-.63.634-1.014a5.76 5.76 0 00.33-1.2c.066-.415.106-.833.117-1.25.01-.415.017-.798.017-1.147.002-1.597-.003-2.83-.014-3.697zm9.811 5.428c-1.465-1.57-2.928-3.133-4.39-4.686a100.785 100.785 0 00-.043 4.307c.005.35.01.715.017 1.098.007.383.015.77.026 1.164l.033 1.1c.01.335.022.632.033.884.01.254.022.426.034.516a5.73 5.73 0 00-1.217 0c.023-.113.05-.32.076-.625.03-.305.054-.666.076-1.09.022-.422.05-.88.076-1.375a82.044 82.044 0 00.108-2.936c.013-.476.02-.897.02-1.27 0-1.08-.004-2.01-.01-2.786a40.01 40.01 0 00-.042-1.738h.27c.688.742 1.422 1.54 2.205 2.39a666.235 666.235 0 004.525 4.864c.69.737 1.296 1.364 1.813 1.882V30.27c0-1.183-.008-2.333-.025-3.454a77.112 77.112 0 00-.11-3.166c.226.057.417.084.575.084.135 0 .314-.027.54-.084-.022.248-.048.62-.076 1.115-.028.496-.056 1.023-.083 1.588-.03.563-.056 1.113-.078 1.654-.022.54-.034.975-.034 1.3v1.013c0 .383.003.783.01 1.2.004.417.01.835.017 1.26.005.42.01.813.017 1.18.005.366.008.685.008.954v.56h-.236a161.773 161.773 0 00-4.137-4.608zm7.811-5.032c-.03-.715-.06-1.443-.094-2.188.146.023.287.043.422.06a3.466 3.466 0 00.81 0c.136-.017.276-.036.423-.06a278.07 278.07 0 00-.094 2.188 55.85 55.85 0 00-.043 2.188v2.904c0 .742.015 1.475.043 2.195.027.722.06 1.43.093 2.128a10.235 10.235 0 00-1.656 0c.033-.697.064-1.406.094-2.127.027-.72.04-1.452.04-2.194v-2.904c0-.744-.013-1.473-.04-2.188zm7.219 7.016a558.813 558.813 0 00-2.49-6.129 659.33 659.33 0 00-1.275-3.073c.157.023.31.043.455.06a3.873 3.873 0 00.845 0c.146-.017.298-.036.456-.06.248.744.52 1.523.818 2.34.3.816.614 1.646.946 2.49a267.353 267.353 0 002.085 5.15c.203-.46.423-.977.66-1.545a107.625 107.625 0 001.435-3.648c.235-.635.464-1.246.685-1.832a98.939 98.939 0 001.055-2.955c.247.057.456.084.625.084.168 0 .377-.026.625-.083-.88 1.96-1.723 3.9-2.533 5.826-.81 1.926-1.59 3.85-2.332 5.775a4.818 4.818 0 00-1.115 0c-.26-.664-.575-1.462-.946-2.398zm8.908-7.04c-.03-.722-.06-1.442-.094-2.163.508.023 1.01.043 1.513.06a47.332 47.332 0 003.014 0c.496-.017.997-.036 1.504-.06a2.575 2.575 0 000 1.014c-.36-.02-.69-.044-.987-.067-.3-.02-.613-.045-.945-.066a46.585 46.585 0 00-1.09-.06 35.942 35.942 0 00-1.418-.024c-.012.36-.025.703-.043 1.03a21.77 21.77 0 00-.024 1.114c0 .44.003.867.008 1.283.007.416.01.73.01.945a51.449 51.449 0 002.414-.058c.326-.02.63-.036.904-.052.275-.018.537-.037.785-.06a2.648 2.648 0 000 1.03 17.48 17.48 0 00-1.02-.087 30.27 30.27 0 00-1.167-.042l-1.098-.018a47.378 47.378 0 00-.818-.008c0 .102-.003.21-.01.33a10.79 10.79 0 00-.007.447v1.671c0 .642.003 1.17.008 1.59.007.415.016.73.027.944h1.182c.427 0 .846-.01 1.257-.025.41-.02.8-.04 1.166-.07.365-.026.684-.07.953-.126-.023.08-.037.166-.043.262a5.136 5.136 0 00-.008.262c0 .18.018.326.05.44a34.755 34.755 0 00-1.51-.034h-3.065c-.507 0-1.02.012-1.537.033.033-.72.064-1.438.094-2.152.027-.715.04-1.443.04-2.188v-2.904a63.13 63.13 0 00-.042-2.194zm8.527.024c-.028-.715-.06-1.443-.094-2.188.327.023.648.043.963.06.317.017.638.024.964.024.326 0 .646-.014.963-.04.314-.028.636-.044.963-.044.472 0 .922.045 1.35.135.43.09.803.24 1.123.448.32.21.574.482.76.82.187.338.28.76.28 1.266 0 .54-.122 1.006-.364 1.395a3.34 3.34 0 01-.888.96c-.35.254-.723.45-1.122.592-.4.14-.764.234-1.09.28.136.167.32.403.558.708.236.303.5.64.793 1.004.294.367.6.75.913 1.148.315.4.62.783.912 1.148.293.365.568.7.828 1.006.26.303.467.533.625.69a4.126 4.126 0 00-.508-.032h-.996c-.17 0-.332.012-.49.033-.168-.236-.424-.592-.768-1.064a82.554 82.554 0 00-2.415-3.133c-.434-.533-.83-.986-1.19-1.36h-.64v1.235c0 .742.014 1.475.04 2.195.03.72.06 1.43.095 2.127a10.26 10.26 0 00-1.656 0c.033-.697.064-1.406.093-2.127.03-.72.042-1.453.042-2.195V28.02c0-.742-.015-1.47-.043-2.186zm1.942 3.217c.186.013.392.02.617.02.35 0 .712-.04 1.09-.12a3.134 3.134 0 001.038-.414 2.44 2.44 0 00.785-.793c.21-.332.313-.752.313-1.258 0-.44-.082-.803-.244-1.09a1.97 1.97 0 00-.634-.684 2.41 2.41 0 00-.844-.345 4.41 4.41 0 00-.896-.094c-.395 0-.72.01-.98.026-.257.017-.478.037-.657.06-.02.62-.044 1.23-.066 1.84a48.168 48.168 0 00-.034 1.825v.962c.156.036.328.057.514.07zm8.496 4.619a2.816 2.816 0 002.305 1.138 2.51 2.51 0 001.004-.193c.298-.13.55-.305.76-.523.208-.22.368-.48.48-.777.112-.297.17-.617.17-.953 0-.518-.134-.93-.397-1.232a3.293 3.293 0 00-.988-.762c-.395-.2-.818-.39-1.275-.557-.455-.17-.88-.38-1.274-.632a3.382 3.382 0 01-.987-.97c-.267-.396-.398-.925-.398-1.59 0-.472.085-.903.253-1.29.17-.39.414-.725.734-1.006.32-.28.706-.5 1.157-.658.45-.158.956-.236 1.52-.236.54 0 1.006.064 1.4.193.395.132.76.33 1.098.6-.1.192-.186.396-.253.61a8.314 8.314 0 00-.202.81h-.203a4.658 4.658 0 00-.228-.515 2.008 2.008 0 00-.39-.516 2.14 2.14 0 00-.583-.397 1.87 1.87 0 00-.81-.16c-.315 0-.605.05-.87.152-.265.1-.496.244-.693.43a1.922 1.922 0 00-.455.666c-.108.26-.16.542-.16.847 0 .53.13.945.395 1.25.265.303.594.56.988.768a9.5 9.5 0 001.274.557c.456.164.88.363 1.274.6.396.236.725.54.99.912.263.37.396.867.396 1.486a3.91 3.91 0 01-.278 1.47 3.485 3.485 0 01-.81 1.208c-.356.342-.79.607-1.302.793-.513.187-1.096.28-1.748.28-.698 0-1.264-.094-1.697-.28a4.574 4.574 0 01-1.088-.632c.102-.26.17-.494.21-.7.04-.21.077-.478.11-.804h.202c.09.202.212.407.365.616zm8.492-7.836c-.027-.715-.06-1.443-.092-2.188.146.023.287.043.422.06a3.437 3.437 0 00.81 0c.135-.017.275-.036.422-.06a578.15 578.15 0 00-.093 2.188c-.028.715-.04 1.443-.04 2.188v2.904c0 .742.013 1.475.04 2.195.03.72.06 1.43.094 2.128a10.254 10.254 0 00-1.654 0c.033-.697.064-1.406.092-2.127.03-.72.043-1.452.043-2.194v-2.904c0-.744-.014-1.473-.043-2.188zm7.118-1.308a34.208 34.208 0 00-1.882.04c-.32.02-.63.038-.93.062-.3.02-.565.05-.802.084.056-.203.085-.383.085-.54 0-.124-.028-.3-.084-.524.743.023 1.47.043 2.18.06a103.053 103.053 0 004.357 0c.71-.017 1.434-.036 2.178-.06a2.327 2.327 0 00-.084.54c0 .147.028.32.085.524a11.785 11.785 0 00-.802-.084 31.01 31.01 0 00-1.89-.094c-.322-.006-.63-.008-.92-.008a112.56 112.56 0 00-.052 3.496v2.904c0 .742.014 1.475.04 2.195.03.722.06 1.43.095 2.128a10.26 10.26 0 00-1.655 0c.035-.697.066-1.406.094-2.127.027-.72.04-1.452.04-2.194v-2.904c0-1.172-.016-2.338-.05-3.496zm12.293 1.021c.315.76.636 1.53.963 2.305a375.998 375.998 0 001.9 4.45c.287.657.546 1.247.776 1.765.23.518.42.912.566 1.182a3.414 3.414 0 00-.447-.034h-.894a3.4 3.4 0 00-.447.033c-.08-.26-.188-.57-.322-.94a37.752 37.752 0 00-.447-1.147l-.497-1.215c-.168-.412-.326-.803-.473-1.174a68.992 68.992 0 00-4.272 0c-.36.878-.687 1.714-.98 2.507-.29.793-.51 1.45-.657 1.967a5.73 5.73 0 00-1.25 0c.913-1.972 1.8-3.93 2.668-5.878.867-1.947 1.74-3.928 2.617-5.943h.32l.878 2.117zm-3.41-4.6a.823.823 0 01.607-.255c.236 0 .438.084.607.254.17.168.254.37.254.607 0 .236-.084.44-.253.607a.824.824 0 01-.607.254.823.823 0 01-.607-.254.823.823 0 01-.254-.607.82.82 0 01.253-.607zm.134 9.05c.293 0 .597.006.912.018.314.01.62.016.91.016a49.62 49.62 0 001.892-.032l-1.875-4.29-1.84 4.29zm3.192-9.05a.823.823 0 01.606-.255c.236 0 .44.084.608.254a.82.82 0 01.253.607c0 .236-.084.44-.253.607a.826.826 0 01-.608.254.823.823 0 01-.607-.254.823.823 0 01-.255-.607c0-.236.085-.44.254-.607zm8.611 3.579a34.338 34.338 0 00-1.882.04c-.32.02-.63.038-.928.062-.3.02-.566.05-.803.084a2.02 2.02 0 00.084-.54c0-.124-.026-.3-.083-.524.744.023 1.47.043 2.18.06a103.005 103.005 0 004.356 0 265.09 265.09 0 002.18-.06 2.338 2.338 0 00-.087.54c0 .147.03.32.086.524a11.853 11.853 0 00-.803-.084 30.84 30.84 0 00-1.89-.094c-.324-.006-.63-.008-.924-.008-.033 1.158-.05 2.324-.05 3.496v2.904c0 .742.015 1.475.042 2.195.027.72.06 1.43.094 2.128a10.235 10.235 0 00-1.655 0c.033-.697.064-1.406.094-2.127.028-.72.042-1.452.042-2.194v-2.904c0-1.172-.017-2.338-.05-3.496zm7.17 9.144a2.803 2.803 0 001.327.978c.29.107.617.16.98.16.37 0 .704-.064 1.003-.193.3-.13.553-.305.76-.523.21-.22.37-.48.482-.777a2.71 2.71 0 00.168-.953c0-.518-.13-.93-.396-1.232a3.268 3.268 0 00-.988-.762c-.393-.2-.818-.39-1.273-.557-.457-.17-.88-.38-1.275-.632a3.373 3.373 0 01-.988-.97c-.264-.396-.396-.925-.396-1.59 0-.472.084-.903.252-1.29.17-.39.414-.725.736-1.006.32-.28.705-.5 1.156-.658.45-.158.957-.236 1.52-.236.54 0 1.008.064 1.402.193.393.132.76.33 1.098.6a3.66 3.66 0 00-.254.61 8.28 8.28 0 00-.203.81h-.202a4.457 4.457 0 00-.227-.515 2.03 2.03 0 00-.388-.516 2.173 2.173 0 00-.582-.397 1.883 1.883 0 00-.81-.16c-.317 0-.606.05-.872.152-.264.1-.494.244-.69.43-.198.186-.35.408-.458.666-.107.26-.16.542-.16.847 0 .53.133.945.396 1.25.266.303.594.56.988.768.395.21.82.395 1.275.557.454.164.88.363 1.274.6.393.236.723.54.986.912.266.37.398.867.398 1.486a3.91 3.91 0 01-.28 1.47 3.47 3.47 0 01-.81 1.208 3.613 3.613 0 01-1.3.793c-.513.187-1.095.28-1.75.28-.696 0-1.263-.094-1.694-.28a4.615 4.615 0 01-1.09-.632c.102-.26.172-.494.21-.7.04-.21.077-.478.11-.804h.203c.09.202.21.407.363.616zm8.494-7.86c-.027-.722-.06-1.442-.094-2.163.293.023.592.043.896.06.303.017.602.024.895.024.294 0 .59-.013.896-.04.305-.027.604-.043.895-.043.485 0 .942.037 1.37.11a3.45 3.45 0 011.13.388c.327.186.587.438.778.752.19.314.287.71.287 1.182 0 .833-.262 1.485-.785 1.958-.523.473-1.21.805-2.053.996v.035c1.002.044 1.793.286 2.373.724.58.44.87 1.143.87 2.11 0 .632-.13 1.16-.39 1.59a3.142 3.142 0 01-1.012 1.038c-.418.264-.877.45-1.377.557-.5.106-1 .16-1.493.16a18.9 18.9 0 01-.82-.02c-.275-.01-.547-.015-.818-.015h-.82c-.276 0-.548.012-.82.033.036-.72.067-1.438.095-2.152.028-.714.04-1.443.04-2.188v-2.904c0-.744-.014-1.474-.04-2.195zm3.512 2.903c.39-.078.734-.21 1.04-.396a2.14 2.14 0 00.733-.744c.185-.31.278-.7.278-1.172 0-.462-.084-.83-.254-1.106a1.838 1.838 0 00-.64-.64 2.486 2.486 0 00-.88-.306 6.32 6.32 0 00-.98-.076c-.292 0-.54.008-.743.025a9.68 9.68 0 00-.538.06c-.023.54-.047 1.075-.068 1.604a36.95 36.95 0 00-.033 1.605v1.268h.91c.396 0 .787-.042 1.176-.12zm-2.05 4.172c.02.563.044 1.13.067 1.705a15.79 15.79 0 001.655.084c.36 0 .705-.06 1.04-.186.33-.123.62-.307.868-.55a2.65 2.65 0 00.59-.894c.146-.355.22-.758.22-1.21 0-.48-.087-.878-.26-1.188a1.862 1.862 0 00-.753-.727 3.61 3.61 0 00-1.174-.364 10.7 10.7 0 00-1.527-.1h-.76v1.72c.002.576.01 1.145.035 1.71zm8.94-7.051c-.03-.715-.06-1.443-.094-2.188.146.023.287.043.422.06a3.478 3.478 0 00.812 0c.135-.017.275-.036.422-.06a278.07 278.07 0 00-.094 2.188 55.9 55.9 0 00-.04 2.188v2.904c0 .742.013 1.475.04 2.195.027.72.06 1.43.094 2.128a10.26 10.26 0 00-1.656 0c.033-.697.064-1.406.094-2.127.027-.72.04-1.452.04-2.194v-2.904c0-.744-.012-1.473-.04-2.188zm4.78-.024c-.03-.722-.06-1.442-.094-2.163.293.023.592.043.895.06.305.017.604.024.896.024.29 0 .59-.013.895-.04.305-.027.602-.043.895-.043.484 0 .94.037 1.367.11.43.073.807.202 1.133.388.326.186.584.438.775.752.19.314.287.71.287 1.182 0 .833-.26 1.485-.785 1.958-.523.473-1.207.805-2.05.996v.035c1 .044 1.792.286 2.372.724.58.44.87 1.143.87 2.11 0 .632-.13 1.16-.39 1.59-.26.427-.598.772-1.014 1.038-.416.264-.875.45-1.375.557-.502.106-1 .16-1.494.16a18.9 18.9 0 01-.82-.02c-.276-.01-.55-.015-.82-.015h-.82c-.274 0-.548.012-.817.033.033-.72.064-1.438.094-2.152.027-.715.04-1.443.04-2.188v-2.904c0-.744-.014-1.474-.04-2.195zm3.51 2.903a3.17 3.17 0 001.04-.396 2.16 2.16 0 00.734-.744c.186-.31.28-.7.28-1.172 0-.462-.087-.83-.255-1.106a1.843 1.843 0 00-.643-.64 2.462 2.462 0 00-.877-.306 6.343 6.343 0 00-.98-.076 9.106 9.106 0 00-1.283.084l-.066 1.605c-.023.53-.035 1.065-.035 1.605v1.268h.913a6.02 6.02 0 001.174-.12zm-2.05 4.172c.02.563.043 1.13.066 1.705a15.894 15.894 0 001.656.084c.36 0 .705-.06 1.037-.186a2.43 2.43 0 00.87-.55c.247-.24.444-.54.59-.894.147-.355.222-.758.222-1.21 0-.48-.088-.878-.264-1.188a1.844 1.844 0 00-.75-.727 3.626 3.626 0 00-1.174-.364 10.73 10.73 0 00-1.53-.1h-.76v1.72c0 .576.013 1.145.036 1.71zm8.942-7.051c-.03-.715-.06-1.443-.094-2.188.146.023.287.043.422.06a3.454 3.454 0 00.81 0c.135-.017.277-.036.422-.06-.033.744-.064 1.473-.092 2.188-.03.715-.043 1.443-.043 2.188 0 1.418.006 2.648.018 3.69.01 1.04.022 1.972.034 2.794.8 0 1.564-.01 2.297-.025.733-.017 1.52-.08 2.366-.194a1.82 1.82 0 00-.086.508c0 .123.027.275.086.455a38.49 38.49 0 00-1.555-.034h-3.115c-.502 0-1.02.012-1.563.033.033-.698.064-1.407.094-2.128.027-.72.04-1.453.04-2.195v-2.904a54.106 54.106 0 00-.038-2.19zm8.527 0c-.03-.715-.06-1.443-.094-2.188.147.023.288.043.423.06a3.478 3.478 0 00.81 0c.137-.017.277-.036.424-.06a278.07 278.07 0 00-.094 2.188 55.85 55.85 0 00-.043 2.188v2.904c0 .742.016 1.475.043 2.195.027.72.06 1.43.094 2.128a10.26 10.26 0 00-1.656 0c.034-.697.065-1.406.095-2.127.027-.72.04-1.452.04-2.194v-2.904c0-.744-.012-1.473-.04-2.188zm4.34 1.08a5.35 5.35 0 011.3-1.9 5.642 5.642 0 012-1.182c.778-.27 1.628-.404 2.552-.404.934 0 1.79.135 2.566.404a5.6 5.6 0 012 1.182c.56.52.992 1.152 1.3 1.9.312.75.466 1.602.466 2.56 0 .956-.155 1.81-.466 2.558a5.31 5.31 0 01-1.3 1.9 5.314 5.314 0 01-2 1.156 8.283 8.283 0 01-2.567.38 8.221 8.221 0 01-2.55-.38 5.35 5.35 0 01-2.003-1.156 5.34 5.34 0 01-1.3-1.9c-.31-.748-.464-1.602-.464-2.56 0-.956.155-1.808.465-2.558zm10.174.135c-.237-.68-.565-1.243-.99-1.69a3.957 3.957 0 00-1.483-.987 5.24 5.24 0 00-1.85-.32c-.654 0-1.264.107-1.832.32a3.933 3.933 0 00-1.486.988c-.423.446-.753 1.01-.99 1.69-.235.68-.354 1.49-.354 2.423 0 .934.12 1.742.355 2.424.237.682.567 1.244.99 1.688a3.91 3.91 0 001.485.988 5.13 5.13 0 001.832.32 5.2 5.2 0 001.85-.32 3.925 3.925 0 001.484-.988c.425-.443.753-1.006.99-1.688.235-.682.354-1.49.354-2.424 0-.934-.12-1.742-.355-2.424zm6.131-2.523a34.15 34.15 0 00-1.883.04c-.32.02-.63.038-.93.062a10.6 10.6 0 00-.8.084 2.02 2.02 0 00.083-.54c0-.124-.027-.3-.084-.524.742.023 1.47.043 2.178.06a103.077 103.077 0 004.358 0 258.7 258.7 0 002.178-.06 2.316 2.316 0 00-.084.54c0 .147.027.32.084.524a11.717 11.717 0 00-.803-.084 31.182 31.182 0 00-1.89-.094 48.92 48.92 0 00-.922-.008 122.74 122.74 0 00-.05 3.496v2.904c0 .742.013 1.475.04 2.195.03.722.06 1.43.094 2.128a10.26 10.26 0 00-1.654 0c.033-.697.064-1.406.092-2.127.028-.72.043-1.452.043-2.194v-2.904c0-1.172-.017-2.338-.05-3.496zm15.578 1.308c-.03-.715-.06-1.443-.094-2.188.146.023.287.043.422.06a3.454 3.454 0 00.81 0c.137-.017.277-.036.424-.06a278.07 278.07 0 00-.094 2.188c-.03.715-.043 1.443-.043 2.188v2.904c0 .742.014 1.475.043 2.195.027.722.06 1.43.094 2.128a10.26 10.26 0 00-1.656 0c.035-.697.064-1.406.094-2.127.027-.72.04-1.452.04-2.194v-1.52a139.02 139.02 0 00-1.763-.025 166.615 166.615 0 00-5.296.026v1.52c0 .742.013 1.475.042 2.195.027.722.06 1.43.094 2.128a10.26 10.26 0 00-1.656 0c.033-.697.064-1.406.094-2.127.027-.72.04-1.452.04-2.194v-2.904c0-.744-.013-1.473-.04-2.188-.03-.715-.06-1.443-.094-2.188.146.023.287.043.422.06a3.454 3.454 0 00.81 0c.137-.017.277-.036.424-.06a278.07 278.07 0 00-.094 2.188c-.03.715-.043 1.443-.043 2.188v.59l1.765.033a83.584 83.584 0 003.53 0c.568-.01 1.156-.02 1.764-.033v-.59c0-.744-.015-1.473-.042-2.188zm4.779-.024c-.027-.722-.06-1.442-.094-2.163.508.023 1.01.043 1.512.06a47.377 47.377 0 003.014 0c.495-.017.997-.036 1.503-.06a2.632 2.632 0 000 1.014c-.36-.02-.69-.045-.988-.068-.3-.02-.613-.045-.945-.066a46.585 46.585 0 00-1.09-.06 35.873 35.873 0 00-1.418-.024c-.012.36-.025.703-.043 1.03-.017.325-.024.696-.024 1.114 0 .44.002.867.008 1.283.006.416.008.73.008.945a52.19 52.19 0 002.416-.058c.324-.02.627-.036.902-.052.275-.018.537-.037.785-.06a2.648 2.648 0 000 1.03 17.48 17.48 0 00-1.02-.087 30.27 30.27 0 00-1.167-.042 569.83 569.83 0 01-1.098-.018 47.29 47.29 0 00-.818-.008c0 .102-.002.21-.008.33a9.273 9.273 0 00-.008.447v1.671c0 .642.002 1.17.008 1.59.006.415.014.73.025.944h1.18c.43 0 .85-.01 1.26-.025.41-.02.798-.04 1.165-.07.365-.026.684-.07.953-.126-.023.08-.037.166-.04.262-.007.096-.01.184-.01.262 0 .18.017.326.05.44a36.47 36.47 0 00-1.512-.034h-3.065c-.506 0-1.02.012-1.537.033.033-.72.066-1.438.094-2.152.027-.714.04-1.443.04-2.188V28a60.743 60.743 0 00-.043-2.194zm8.528 7.312c.03-.72.043-1.453.043-2.195v-2.904c0-.744-.014-1.473-.043-2.188a280.16 280.16 0 00-.094-2.188c.147.023.288.043.425.06a3.432 3.432 0 00.81 0c.135-.017.275-.036.422-.06-.033.744-.064 1.473-.094 2.188-.027.715-.04 1.443-.04 2.188v.928c0 .09.032.136.1.136.044 0 .124-.05.237-.15.393-.338.807-.72 1.24-1.15a57.4 57.4 0 001.31-1.332c.438-.463.872-.932 1.3-1.41.428-.48.838-.943 1.232-1.395.123.022.242.042.355.06.11.016.225.023.338.023.135 0 .27-.008.404-.023.134-.018.27-.037.405-.06-.395.337-.84.737-1.336 1.198-.495.463-.993.934-1.495 1.418-.5.484-.98.96-1.436 1.428-.456.467-.837.875-1.14 1.225a368.768 368.768 0 012.76 3.132 390.23 390.23 0 002.83 3.2 4.126 4.126 0 00-.508-.034h-.97c-.15 0-.306.012-.464.033-.404-.46-.852-.99-1.342-1.587a256.303 256.303 0 00-2.702-3.232 17.303 17.303 0 00-.836-.937c-.092-.09-.158-.135-.203-.135-.057 0-.084.033-.084.102v1.47c0 .74.013 1.474.04 2.194.03.72.06 1.43.094 2.127a10.26 10.26 0 00-1.656 0c.038-.7.07-1.408.097-2.128zM337.87 25.1a4.464 4.464 0 00-.844-.533 5.458 5.458 0 00-1.03-.37 4.887 4.887 0 00-1.206-.144c-.7 0-1.35.107-1.95.32a4.143 4.143 0 00-1.57.988c-.446.446-.796 1.01-1.048 1.69-.254.68-.38 1.49-.38 2.423 0 .822.112 1.564.337 2.23a4.49 4.49 0 00.987 1.68c.434.455.963.807 1.588 1.055.625.248 1.33.37 2.12.37a7.93 7.93 0 001.494-.135c.24-.044.466-.1.675-.167a2.41 2.41 0 00.53-.238c.013-.336.02-.674.026-1.012.005-.338.008-.682.008-1.03 0-.394-.008-.788-.025-1.183a43.55 43.55 0 00-.06-1.13 4.086 4.086 0 001.183.065c.125-.01.242-.033.355-.066-.022.258-.038.668-.05 1.225-.012.557-.018 1.29-.018 2.203 0 .225.004.453.01.684.004.23.008.46.008.684a10.275 10.275 0 01-2.017.515c-.4.063-.802.117-1.2.168-.4.052-.764.08-1.09.08-1.002 0-1.904-.124-2.71-.364-.804-.242-1.49-.617-2.052-1.123a5.06 5.06 0 01-1.3-1.893c-.303-.754-.455-1.627-.455-2.617 0-.957.156-1.81.473-2.56a5.28 5.28 0 011.334-1.9c.574-.517 1.27-.91 2.086-1.18.816-.27 1.72-.405 2.71-.405.573 0 1.083.03 1.528.092.445.063.838.145 1.182.246.344.1.645.207.904.32.258.113.49.22.69.32a2.87 2.87 0 00-.243.607 4 4 0 00-.146.693h-.2a4.252 4.252 0 00-.634-.606zm3.7 1.814a5.35 5.35 0 011.298-1.9 5.642 5.642 0 012.002-1.182c.777-.27 1.627-.404 2.55-.404.935 0 1.79.135 2.567.404a5.6 5.6 0 012 1.182c.56.52.992 1.152 1.3 1.9.312.75.466 1.602.466 2.56 0 .956-.154 1.81-.465 2.558a5.31 5.31 0 01-1.3 1.9 5.314 5.314 0 01-2 1.156 8.283 8.283 0 01-2.567.38 8.23 8.23 0 01-2.55-.38 5.35 5.35 0 01-2.002-1.156 5.34 5.34 0 01-1.3-1.9c-.31-.748-.464-1.602-.464-2.56 0-.956.155-1.808.465-2.558zm10.173.135c-.236-.68-.564-1.243-.988-1.69a3.94 3.94 0 00-1.484-.987 5.233 5.233 0 00-1.85-.32c-.653 0-1.263.107-1.83.32a3.933 3.933 0 00-1.487.988c-.422.446-.752 1.01-.988 1.69-.236.68-.355 1.49-.355 2.423 0 .934.12 1.742.355 2.424.236.682.566 1.244.988 1.688a3.91 3.91 0 001.486.988 5.13 5.13 0 001.83.32c.665 0 1.282-.105 1.85-.32a3.91 3.91 0 001.485-.988c.424-.443.752-1.006.988-1.688.236-.682.355-1.49.355-2.424 0-.934-.118-1.742-.355-2.424zm-6.586-6.104a.83.83 0 01.61-.254c.235 0 .437.084.606.254.168.168.252.37.252.607 0 .236-.084.44-.252.607a.826.826 0 01-.607.254.83.83 0 01-.61-.254.828.828 0 01-.25-.607c0-.236.083-.44.25-.607zm3.326 0a.83.83 0 01.61-.254c.235 0 .438.084.606.254a.82.82 0 01.253.607c0 .236-.084.44-.254.607a.823.823 0 01-.608.254.83.83 0 01-.61-.254.828.828 0 01-.25-.607c0-.236.083-.44.25-.607zm10.017 3.581a34.267 34.267 0 00-1.883.04c-.32.02-.632.038-.93.062-.3.02-.565.05-.802.084.055-.203.084-.383.084-.54 0-.124-.03-.3-.085-.524.742.023 1.47.043 2.178.06a103.22 103.22 0 004.358 0c.71-.017 1.435-.036 2.18-.06a2.316 2.316 0 00-.085.54c0 .147.027.32.084.524a11.717 11.717 0 00-.804-.084 31.182 31.182 0 00-1.89-.094c-.32-.006-.63-.008-.92-.008a112.56 112.56 0 00-.052 3.496v2.904c0 .742.014 1.475.04 2.195.03.722.062 1.43.095 2.128a10.26 10.26 0 00-1.657 0c.035-.697.066-1.406.094-2.127.028-.72.043-1.452.043-2.194v-2.904c0-1.172-.018-2.338-.05-3.496zm9.472 0a34.41 34.41 0 00-1.883.04c-.32.02-.63.038-.928.062-.298.02-.565.05-.802.084a2.02 2.02 0 00.084-.54c0-.124-.027-.3-.084-.524.744.023 1.47.043 2.178.06a103.03 103.03 0 004.358 0 258.7 258.7 0 002.178-.06 2.43 2.43 0 00-.084.54c0 .147.03.32.084.524a11.785 11.785 0 00-.8-.084 30.758 30.758 0 00-1.893-.094 48.92 48.92 0 00-.92-.008 122.74 122.74 0 00-.053 3.496v2.904c0 .742.014 1.475.043 2.195.027.722.06 1.43.092 2.128a10.172 10.172 0 00-1.654 0c.033-.697.064-1.406.094-2.127.027-.72.04-1.452.04-2.194v-2.904c0-1.172-.017-2.338-.05-3.496zm7.134 1.308c-.027-.715-.06-1.443-.092-2.188.146.023.287.043.422.06a3.432 3.432 0 00.81 0c.135-.017.275-.036.422-.06-.033.744-.064 1.473-.094 2.188-.027.715-.04 1.443-.04 2.188v2.904c0 .742.013 1.475.04 2.195.03.722.06 1.43.094 2.128a10.26 10.26 0 00-1.654 0c.033-.697.064-1.406.092-2.127.03-.72.043-1.452.043-2.194v-2.904c0-.744-.014-1.473-.044-2.188zm10.192 5.032c-1.463-1.57-2.926-3.133-4.39-4.686a100.785 100.785 0 00-.05 3.428c-.002.236.002.53.008.88.004.35.01.714.016 1.097s.016.77.025 1.164c.012.394.023.76.035 1.1.01.335.02.632.033.884.012.254.02.426.033.516a5.704 5.704 0 00-1.215 0c.02-.113.047-.32.076-.625.026-.305.052-.666.073-1.09.023-.422.05-.88.076-1.375.028-.496.05-.99.067-1.486a111.626 111.626 0 00.06-2.72c0-1.08-.003-2.01-.01-2.786a36.676 36.676 0 00-.042-1.738h.27c.687.742 1.42 1.54 2.204 2.39.78.85 1.558 1.688 2.33 2.515.77.828 1.503 1.61 2.194 2.348.69.738 1.297 1.365 1.814 1.883V30.27c0-1.183-.008-2.333-.023-3.454a78.787 78.787 0 00-.11-3.166c.226.057.417.084.573.084.135 0 .316-.027.54-.084-.02.248-.048.62-.075 1.115-.027.496-.057 1.023-.084 1.588-.03.563-.056 1.113-.077 1.654-.023.54-.033.975-.033 1.3v1.013c0 .383.002.783.008 1.2l.018 1.26c.004.42.01.813.016 1.18.006.366.01.685.01.954v.56h-.236a158.855 158.855 0 00-4.138-4.608zm16.896-5.766a4.545 4.545 0 00-.846-.533 5.408 5.408 0 00-1.03-.37 4.876 4.876 0 00-1.206-.144c-.7 0-1.35.107-1.95.32a4.174 4.174 0 00-1.57.988c-.446.446-.794 1.01-1.048 1.69-.254.68-.38 1.49-.38 2.423 0 .822.112 1.564.337 2.23.226.664.556 1.223.99 1.68.433.455.962.807 1.587 1.055.625.248 1.33.37 2.12.37a7.93 7.93 0 001.494-.135c.24-.044.466-.1.675-.167.21-.068.385-.146.53-.238.013-.336.02-.674.026-1.012.005-.338.008-.682.008-1.03 0-.394-.008-.788-.023-1.183-.018-.395-.037-.77-.06-1.13a4.086 4.086 0 001.183.065 1.76 1.76 0 00.354-.066c-.02.258-.04.668-.05 1.225-.01.557-.017 1.29-.017 2.203 0 .225.002.453.008.684.006.23.008.46.008.684-.236.09-.53.184-.887.28-.354.095-.73.175-1.13.235-.4.063-.8.117-1.2.168-.398.052-.764.08-1.088.08-1.004 0-1.906-.124-2.71-.364-.806-.242-1.49-.617-2.054-1.123a5.06 5.06 0 01-1.3-1.893c-.304-.754-.456-1.627-.456-2.617 0-.957.158-1.81.473-2.56.317-.747.76-1.38 1.335-1.9.574-.517 1.27-.91 2.086-1.18.817-.27 1.72-.405 2.712-.405.574 0 1.082.03 1.527.092.444.063.84.145 1.18.246.345.102.646.207.905.32.26.113.49.22.693.32-.092.158-.174.36-.246.607-.072.248-.12.48-.143.693h-.204a4.393 4.393 0 00-.632-.606zm4.136.71c-.026-.722-.06-1.442-.093-2.163.508.023 1.012.043 1.512.06a47.467 47.467 0 003.013 0c.496-.017.998-.036 1.504-.06a2.632 2.632 0 000 1.014c-.36-.02-.69-.045-.988-.068-.298-.02-.614-.045-.946-.066a46.585 46.585 0 00-1.09-.06 35.873 35.873 0 00-1.418-.024c-.012.36-.025.703-.043 1.03-.016.325-.023.696-.023 1.114 0 .44.002.867.008 1.283.006.416.008.73.008.945a52.19 52.19 0 002.416-.058c.326-.02.627-.036.902-.052.275-.018.537-.037.785-.06a2.648 2.648 0 000 1.03 17.48 17.48 0 00-1.022-.087 30.27 30.27 0 00-1.166-.042 541.49 541.49 0 01-1.096-.018 47.67 47.67 0 00-.82-.008c0 .102-.002.21-.008.33a9.273 9.273 0 00-.008.447v1.671c0 .642.002 1.17.008 1.59.006.415.014.73.025.944h1.182c.428 0 .848-.01 1.258-.025.412-.02.8-.04 1.166-.07.364-.026.683-.07.952-.126-.023.08-.037.166-.04.262-.007.096-.01.184-.01.262 0 .18.017.326.05.44a36.47 36.47 0 00-1.512-.034h-3.064c-.506 0-1.02.012-1.537.033.032-.72.065-1.438.093-2.152.028-.714.04-1.443.04-2.188V28a63.13 63.13 0 00-.042-2.194zm13.94 5.056c-1.462-1.57-2.927-3.133-4.39-4.686-.012.316-.02.738-.033 1.266a100.85 100.85 0 00-.011 3.042l.018 1.097c.006.383.014.77.025 1.164.012.394.023.76.035 1.1.01.335.02.632.033.884.012.254.02.426.033.516a5.73 5.73 0 00-1.217 0c.024-.113.05-.32.077-.625.03-.305.055-.666.076-1.09.023-.422.05-.88.076-1.375.027-.496.05-.99.068-1.486a111.626 111.626 0 00.06-2.72c0-1.08-.003-2.01-.01-2.786a36.676 36.676 0 00-.042-1.738h.27c.688.742 1.422 1.54 2.205 2.39a666.235 666.235 0 004.525 4.864 82.53 82.53 0 001.814 1.882V30.27c0-1.183-.008-2.333-.025-3.454a75.374 75.374 0 00-.11-3.166c.226.057.417.084.575.084.135 0 .316-.027.54-.084-.022.248-.048.62-.075 1.115-.03.496-.057 1.023-.084 1.588-.03.563-.055 1.113-.076 1.654-.023.54-.033.975-.033 1.3v1.013c0 .383.002.783.008 1.2.006.417.01.835.018 1.26.004.42.01.813.016 1.18.006.366.008.685.008.954v.56h-.236a163.312 163.312 0 00-4.137-4.608z" fill="#003867"/><path d="M99.834 2.656V35.49h-.873V2.655z" fill="#bbc2d0"/><path d="M65.914 23.312v7.562h7.8c.323 0 .633-.018.93-.052a4.51 4.51 0 01-1.864 1.814c-.807.42-1.77.628-2.89.628h-7.8v-9.952h3.824zm0-13.828v6.978h7.33c.357 0 .702-.02 1.03-.06a3.83 3.83 0 01-.957 1.217c-.955.822-2.257 1.233-3.9 1.233H62.09v-9.37h3.824zM78.81 23.67a9.267 9.267 0 00-.544-.677c-.41-.6-.97-1.08-1.684-1.443a8.598 8.598 0 00-1.292-.637c.776-.298 1.5-.77 2.172-1.41.675-.657 1.21-1.456 1.614-2.4.42-.955.63-1.993.63-3.113 0-1.81-.405-3.384-1.21-4.73-.794-1.358-1.944-2.397-3.453-3.116-1.495-.73-3.227-1.096-5.2-1.096h-8.905V2.655h12.73c1.973 0 3.706.366 5.2 1.1 1.506.717 2.657 1.755 3.45 3.115.808 1.345 1.21 2.922 1.21 4.728 0 1.12-.21 2.16-.627 3.115a7.324 7.324 0 01-1.612 2.4c-.67.642-1.396 1.112-2.175 1.41 1.405.538 2.577 1.456 3.52 2.757.94 1.3 1.412 2.907 1.412 4.82 0 1.972-.42 3.652-1.254 5.04-.823 1.376-1.99 2.422-3.496 3.138-.396.188-.81.35-1.235.485.337-.376.64-.786.906-1.23.835-1.392 1.254-3.072 1.254-5.043 0-1.912-.47-3.518-1.41-4.82zM20.737 4.89c.497.358.982.758 1.45 1.195l-3.183 3.137a7.898 7.898 0 00-2.104-1.5 8.775 8.775 0 00-2.332-.785A13.416 13.416 0 0011.9 6.69c-.957 0-1.813.13-2.567.39.115-.395.278-.765.49-1.11.477-.777 1.162-1.383 2.06-1.816.897-.433 1.966-.65 3.207-.65.97 0 1.86.083 2.666.248a8.7 8.7 0 012.33.784c.22.105.44.224.65.354zm-2.474 22.577c.105-.41.16-.852.16-1.323 0-1.48-.434-2.606-1.3-3.384-.39-.39-.846-.68-1.368-.873-.508-.21-1.24-.38-2.195-.516l-3.856-.537c-2.66-.374-4.73-1.25-6.208-2.624-1.583-1.48-2.375-3.556-2.375-6.23 0-1.897.44-3.57 1.324-5.02.747-1.23 1.767-2.222 3.063-2.98C4.71 5.38 4.31 6.986 4.31 8.793c0 2.675.79 4.752 2.375 6.23 1.48 1.375 3.547 2.25 6.208 2.622l3.854.537c.956.138 1.69.31 2.197.518.52.193.978.485 1.366.874.866.777 1.302 1.904 1.302 3.383-.004 1.585-.6 2.817-1.795 3.698a5.92 5.92 0 01-1.554.814zM0 31.3l3.208-3.167c1.534 1.527 3.215 2.627 5.044 3.296 1.854.656 4.027.984 6.522.984 1.718 0 3.286-.21 4.706-.627.98-.3 1.873-.694 2.68-1.185a8.662 8.662 0 01-2.146 2.467c-1.06.835-2.302 1.472-3.722 1.903-1.418.42-2.986.627-4.706.63-2.495 0-4.668-.33-6.52-.987C3.225 33.944 1.54 32.836 0 31.3zM30.6 2.655h3.825v21.427c0 1.434.275 2.69.828 3.765.108.208.226.403.35.593a6.425 6.425 0 01-1.82-.677 5.92 5.92 0 01-2.353-2.465c-.554-1.076-.83-2.332-.83-3.765V2.656zm22.314 21.65c0 2.21-.508 4.177-1.522 5.896a10.423 10.423 0 01-4.215 3.988c-1.776.942-3.78 1.413-6.006 1.413-2.21 0-4.205-.47-5.982-1.413a10.545 10.545 0 01-2.713-2.034c1.485.598 3.11.896 4.872.896 2.225 0 4.23-.47 6.006-1.412a10.427 10.427 0 004.214-3.988c1.016-1.718 1.524-3.683 1.524-5.894V2.656h3.824v21.65z" fill="#003867"/></svg>
