<svg width="640" height="640" viewBox="0 0 640 640" xmlns="http://www.w3.org/2000/svg"><path fill="#fff" d="M0 0h640v640H0z"/><path fill="#06b" d="M223 282h9v76h-9z" opacity=".33"/><path fill="#444" d="M96 264h96v26h-34v86h-28v-86H96"/><path fill="#06b" d="M232 274h12v92h-12z" opacity=".67"/><path fill="#444" d="M320 264h84v26h-56v23h52v26h-52v37h-28"/><path fill="#06b" d="M244 264h28v112h-28z"/><path fill="#444" d="m544 264-38 75.27V376h-28v-36.73L440 264h30.16L492 307l21.84-43"/><path fill="#444" d="M592 224v192H48V224h544m24-24H24v240h592z"/></svg>