<svg xmlns="http://www.w3.org/2000/svg" width="592" height="240" viewBox="0 0 592 240"><path fill="#06B" d="M199 82h9v76h-9z" opacity=".33"/><path fill="#444" d="M72 64h96v26h-34v86h-28V90H72"/><path fill="#06B" d="M208 74h12v92h-12z" opacity=".67"/><path fill="#444" d="M296 64h84v26h-56v23h52v26h-52v37h-28"/><path fill="#06B" d="M220 64h28v112h-28z"/><path fill="#444" d="M520 64l-38 75.27V176h-28v-36.73L416 64h30.16L468 107l21.84-43"/><path fill="#444" d="M568 24v192H24V24h544m24-24H0v240h592V0z"/></svg>