<svg xmlns="http://www.w3.org/2000/svg" width="592" height="240" viewBox="0 0 592 240"><path opacity=".33" fill="#0071BC" d="M196 84h12v72h-12z"/><path fill="#4D4D4D" d="M72 64h96v26h-34v86h-28V90H72zM454 114h28v62h-28z"/><path opacity=".67" fill="#0071BC" d="M208 74h12v92h-12z"/><path fill="#4D4D4D" d="M296 64h84v26h-56v23h52v26h-52v37h-28z"/><path fill="#0071BC" d="M220 64h28v112h-28z"/><path fill="#4D4D4D" d="M416 64h30.16L468 107l21.84-43H520l-52 103z"/><g><path fill="#4D4D4D" d="M568 24v192H24V24h544m24-24H0v240h592V0z"/></g></svg>